HIERARCHY
ROOT Hips
{
 OFFSET 0.000000 0.000000 0.000000
 CHANNELS 6 Xposition Yposition Zposition Yrotation Xrotation Zrotation
 JOINT Chest
 {
  OFFSET 0.000000 9.588913 -0.003946
  CHANNELS 3 Yrotation Xrotation Zrotation
  JOINT Chest2
  {
   OFFSET 0.000000 9.541882 0.008053
   CHANNELS 3 Yrotation Xrotation Zrotation
   JOINT Chest3
   {
    OFFSET 0.000000 9.501360 0.000000
    CHANNELS 3 Yrotation Xrotation Zrotation
    JOINT Chest4
    {
     OFFSET 0.000000 9.491660 0.000000
     CHANNELS 3 Yrotation Xrotation Zrotation
     JOINT Neck
     {
      OFFSET 0.000000 14.331917 0.000000
      CHANNELS 3 Yrotation Xrotation Zrotation
      JOINT Head
      {
       OFFSET 0.000000 8.884799 0.017034
       CHANNELS 3 Yrotation Xrotation Zrotation
       End Site
       {
        OFFSET 0.000000 16.896195 0.008993
       }
      }
     }
     JOINT RightCollar
     {
      OFFSET -2.923010 9.499495 0.000000
      CHANNELS 3 Yrotation Xrotation Zrotation
      JOINT RightShoulder
      {
       OFFSET -13.795216 0.000000 0.000000
       CHANNELS 3 Yrotation Xrotation Zrotation
       JOINT RightElbow
       {
        OFFSET -30.272209 0.000000 0.000000
        CHANNELS 3 Yrotation Xrotation Zrotation
        JOINT RightWrist
        {
         OFFSET -24.478199 0.000000 0.000000
         CHANNELS 3 Yrotation Xrotation Zrotation
         End Site
         {
          OFFSET -18.090752 0.000000 0.000000
         }
        }
       }
      }
     }
     JOINT LeftCollar
     {
      OFFSET 2.923010 9.499495 0.000000
      CHANNELS 3 Yrotation Xrotation Zrotation
      JOINT LeftShoulder
      {
       OFFSET 13.795216 0.000000 0.000000
       CHANNELS 3 Yrotation Xrotation Zrotation
       JOINT LeftElbow
       {
        OFFSET 30.272209 0.000000 0.000000
        CHANNELS 3 Yrotation Xrotation Zrotation
        JOINT LeftWrist
        {
         OFFSET 24.478199 0.000000 0.000000
         CHANNELS 3 Yrotation Xrotation Zrotation
         End Site
         {
          OFFSET 18.090752 0.000000 0.000000
         }
        }
       }
      }
     }
    }
   }
  }
 }
 JOINT RightHip
 {
  OFFSET -7.826875 0.019532 0.001973
  CHANNELS 3 Yrotation Xrotation Zrotation
  JOINT RightKnee
  {
   OFFSET 0.000000 -40.546152 -0.001885
   CHANNELS 3 Yrotation Xrotation Zrotation
   JOINT RightAnkle
   {
    OFFSET 0.000000 -39.417092 -0.003189
    CHANNELS 3 Yrotation Xrotation Zrotation
    JOINT RightToe
    {
     OFFSET 0.000000 -7.579396 17.243563
     CHANNELS 3 Yrotation Xrotation Zrotation
     End Site
     {
      OFFSET 0.000000 -1.500329 6.694466
     }
    }
   }
  }
 }
 JOINT LeftHip
 {
  OFFSET 7.826875 0.019532 0.001973
  CHANNELS 3 Yrotation Xrotation Zrotation
  JOINT LeftKnee
  {
   OFFSET 0.000000 -40.546152 -0.001885
   CHANNELS 3 Yrotation Xrotation Zrotation
   JOINT LeftAnkle
   {
    OFFSET 0.000000 -39.417092 -0.003189
    CHANNELS 3 Yrotation Xrotation Zrotation
    JOINT LeftToe
    {
     OFFSET 0.000000 -7.579396 17.243563
     CHANNELS 3 Yrotation Xrotation Zrotation
     End Site
     {
      OFFSET 0.000000 -1.500329 6.694466
     }
    }
   }
  }
 }
}
MOTION
Frames: 5
Frame Time: 0.008333
0.000000 87.345680 0.000000 0.000000 -5.767889 0.000000 0.000000 11.653876 0.000000 0.000000 -5.885988 0.000000 0.000000 -0.000000 0.000000 0.000000 -0.000000 0.000000 0.000000 12.528808 0.000000 0.000000 0.711711 0.000000 0.000000 -0.000000 0.000000 0.000000 -0.000000 0.000000 2.309063 -0.000000 0.000000 -2.309063 -0.000000 -0.000000 0.000000 -0.000000 0.000000 0.000000 0.000000 0.000000 -2.309063 0.000000 0.000000 2.309063 -0.000000 0.000000 0.000000 8.520374 0.000000 0.000000 1.905768 0.000000 -0.000000 -4.658254 0.000000 0.000000 -0.000000 0.000000 0.000000 8.520374 0.000000 0.000000 1.905768 0.000000 -0.000000 -4.658254 0.000000 0.000000 -0.000000 0.000000
11.966266 89.053787 2.437544 55.168031 -3.105072 0.470185 -1.238441 1.615433 0.241699 -0.706348 0.922881 0.141919 -0.882606 1.153869 0.175625 -0.706348 0.922881 0.141919 1.384018 17.481415 -1.351624 1.764673 -7.324542 -1.737913 0.152834 -1.571310 0.658964 -3.523224 -0.144531 88.814163 2.453614 4.195104 -0.247785 -3.874427 -1.875428 -1.891805 -4.058601 -1.830537 -1.969468 1.197254 -0.002628 -88.827155 0.198689 3.774704 -0.146125 1.448233 0.054388 -0.968860 -5.227253 6.374734 0.361777 -3.453799 2.981726 -0.942969 -3.167561 -6.592428 0.161371 0.003087 0.006882 -0.005659 -7.314606 7.311103 -3.114132 2.033741 1.014303 0.503645 1.762981 -4.824062 0.669865 -0.005640 -0.003515 -0.011941
11.962093 89.053709 2.441245 55.162637 -3.106045 0.476412 -1.238269 1.614154 0.239492 -0.706190 0.922267 0.139888 -0.882414 1.153098 0.173088 -0.706190 0.922267 0.139888 1.383576 17.488750 -1.351162 1.764145 -7.316562 -1.737368 0.151108 -1.571332 0.660182 -3.525651 -0.142448 88.812166 2.453394 4.191576 -0.247984 -3.878076 -1.875565 -1.892839 -4.053347 -1.830429 -1.970231 1.186592 -0.004933 -88.832037 0.186401 3.771524 -0.153490 1.443283 0.049809 -0.969339 -5.218345 6.377244 0.358788 -3.459522 2.976825 -0.938665 -3.166915 -6.591691 0.156207 0.004286 0.008118 -0.005488 -7.313273 7.305568 -3.119907 2.029856 1.025315 0.511177 1.766318 -4.828135 0.663703 -0.005295 -0.004125 -0.011426
11.957396 89.053568 2.445555 55.154239 -3.105751 0.483135 -1.237002 1.612806 0.236980 -0.705374 0.921236 0.137795 -0.881399 1.151804 0.170476 -0.705374 0.921236 0.137795 1.383535 17.497363 -1.350766 1.764065 -7.307177 -1.736993 0.150191 -1.571905 0.660239 -3.531199 -0.137577 88.809868 2.452414 4.190467 -0.247993 -3.877928 -1.875524 -1.893359 -4.047277 -1.829761 -1.969821 1.175601 -0.007097 -88.839751 0.171231 3.771578 -0.158354 1.440798 0.047881 -0.971127 -5.209140 6.378816 0.356713 -3.466905 2.971120 -0.936157 -3.164117 -6.590377 0.152006 0.004756 0.009169 -0.005776 -7.307501 7.299695 -3.125041 2.028259 1.035715 0.516867 1.768790 -4.832748 0.658888 -0.005086 -0.004559 -0.011294
11.952423 89.053372 2.450792 55.146443 -3.105408 0.487348 -1.236009 1.611383 0.235328 -0.704728 0.920007 0.136640 -0.880596 1.150266 0.169037 -0.704728 0.920007 0.136640 1.383922 17.506030 -1.351090 1.764604 -7.297706 -1.737479 0.149511 -1.571005 0.658827 -3.539140 -0.132049 88.807338 2.450944 4.193263 -0.249718 -3.874878 -1.876227 -1.890498 -4.041756 -1.828503 -1.971753 1.166320 -0.010098 -88.847400 0.156609 3.774525 -0.161652 1.440434 0.050642 -0.973373 -5.204088 6.381332 0.357645 -3.472977 2.964459 -0.934829 -3.159988 -6.587851 0.148474 0.004307 0.009390 -0.006365 -7.301208 7.294931 -3.126896 2.028113 1.045294 0.521974 1.768851 -4.837695 0.655074 -0.005084 -0.004612 -0.012059
